<svg width="181" height="24" viewBox="0 0 181 24" fill="none" xmlns="http://www.w3.org/2000/svg">
<path d="M20.041 5.33334H12.9934V23.619H7.08863V5.33334H0.0410156V0.380959H20.041V5.33334Z" fill="black"/>
<path d="M42.1354 18.6667V23.619H23.7227V0.380959H41.4369V5.33334H29.3734V9.96826H39.4052V14.7302H29.3734V18.6667H42.1354Z" fill="black"/>
<path d="M68.3587 0.380959V23.619H65.5651L52.7397 10.9206V23.619H46.8984V0.380959H49.6286L62.5175 13.0794V0.380959H68.3587Z" fill="black"/>
<path d="M92.1055 5.33334H85.0578V23.619H79.1531V5.33334H72.1055V0.380959H92.1055V5.33334Z" fill="black"/>
<path d="M116.422 0.380959V23.619H110.708V16.3175H101.438V23.619H95.7871V0.380959H101.438V11.3651H110.708V0.380959H116.422Z" fill="black"/>
<path d="M131.596 13.5238C135.088 13.5238 136.548 11.9365 136.548 9.52381C136.548 7.30159 135.342 5.39683 132.167 5.39683H128.231V13.5873H131.596V13.5238ZM133.12 0.380959C140.167 0.380959 142.58 4.50794 142.58 9.07937C142.58 15.6825 138.263 18.2857 132.167 18.2857H128.167V23.619H122.326V0.380959H133.12Z" fill="black"/>
<path d="M152.548 0.380959H146.707V23.619H152.548V0.380959Z" fill="black"/>
<path d="M180.041 0.380959V23.619H177.248L164.359 10.9206V23.619H158.518V0.380959H161.311L174.137 13.0794V0.380959H180.041Z" fill="black"/>
</svg>
